<?xml version="1.0" encoding="UTF-8" standalone="no"?>
<svg
   xmlns:dc="http://purl.org/dc/elements/1.1/"
   xmlns:cc="http://creativecommons.org/ns#"
   xmlns:rdf="http://www.w3.org/1999/02/22-rdf-syntax-ns#"
   xmlns:svg="http://www.w3.org/2000/svg"
   xmlns="http://www.w3.org/2000/svg"
   xmlns:sodipodi="http://sodipodi.sourceforge.net/DTD/sodipodi-0.dtd"
   xmlns:inkscape="http://www.inkscape.org/namespaces/inkscape"
   viewBox="0 0 64 64"
   version="1.1"
   id="svg33"
   sodipodi:docname="default-user-desktop.svg"
   inkscape:version="0.92.2 2405546, 2018-03-11">
  <metadata
     id="metadata37">
    <rdf:RDF>
      <cc:Work
         rdf:about="">
        <dc:format>image/svg+xml</dc:format>
        <dc:type
           rdf:resource="http://purl.org/dc/dcmitype/StillImage" />
      </cc:Work>
    </rdf:RDF>
  </metadata>
  <sodipodi:namedview
     pagecolor="#ffffff"
     bordercolor="#666666"
     borderopacity="1"
     objecttolerance="10"
     gridtolerance="10"
     guidetolerance="10"
     inkscape:pageopacity="0"
     inkscape:pageshadow="2"
     inkscape:window-width="736"
     inkscape:window-height="615"
     id="namedview35"
     showgrid="false"
     inkscape:zoom="3.6875"
     inkscape:cx="26.261794"
     inkscape:cy="46.130612"
     inkscape:window-x="67"
     inkscape:window-y="86"
     inkscape:window-maximized="0"
     inkscape:current-layer="svg33" />
  <defs
     id="defs7">
    <radialGradient
       id="radialGradient3964"
       cx="32.5"
       cy="56.5"
       r="33.5"
       gradientTransform="matrix(1,0,0,0.10447761,0,50.597015)"
       gradientUnits="userSpaceOnUse">
      <stop
         style="stop-color:#000;stop-opacity:1"
         id="stop2" />
      <stop
         offset="1"
         style="stop-color:#000;stop-opacity:0"
         id="stop4" />
    </radialGradient>
  </defs>
  <g
     transform="translate(0,-988.3622)"
     id="g31">
    <path
       d="m 0 997.42 0 42.823 64 0 0 -21.412 -3.048 -18.353 l -23.952 -0.118 l -3 -6 -30.952 0 c -1.524 0 -3.048 1.529 -3.048 3.059 z"
       style="fill:#66af96;fill-opacity:1;stroke:none"
       id="path11" />
    <path
       d="m 66 56.5 a 33.5 3.5 0 1 1 -67 0 33.5 3.5 0 1 1 67 0 z"
       transform="matrix(1.1343284,0,0,1.1428571,-4.8656716,979.79077)"
       style="fill:url(#radialGradient3964);opacity:0.6;fill-opacity:1;stroke:none"
       id="path9" />
    <path
       d="M 3.0625,6 C 1.538691,6 0,7.53308 0,9.0625 l 0,2 C 0,9.53308 1.538691,8 3.0625,8 L 33,8 36,14 60.9375,14.125 64,32.46875 l 0,-2 L 60.9375,12.125 37,12 34,6 z"
       transform="translate(0,988.3622)"
       style="fill:#000;opacity:0.03;fill-opacity:1;stroke:none"
       id="path15" />
    <rect
       width="31.571"
       height="11.882"
       x="5"
       y="1002.36"
       style="fill:#fffdf0;fill-opacity:1;stroke:none"
       id="rect13" />
    <path
       d="m 64 1003.54 0 42.824 -64 0 0 -40 30 0 3 -6 27.952 0.118 c 1.524 0 3.048 1.529 3.048 3.059 z"
       style="fill:#84ddab;fill-opacity:1;stroke:none"
       id="path17" />
    <path
       d="m 0 1044.36 0 2 64 0 0 -2 z"
       style="fill:#000;opacity:0.15;fill-opacity:1;stroke:none"
       id="path19" />
    <path
       d="m 33 12 -3 6 -30 0 0 2 31 0 3 -6 26.938 0.125 c 1.524 0 3.063 1.533 3.063 3.063 l 0 -2 c 0 -1.529 -1.539 -3.063 -3.063 -3.063 z"
       transform="translate(0,988.3622)"
       style="fill:#000;opacity:0.03;fill-opacity:1;stroke:none"
       id="path21" />
    <g
       style="opacity:1"
       id="g29">
      <path
         d="m 25 1020.36 0 6 c 0 2 2 2 2 2 l 6 0 c 2 0 2 -2 2 -2 l 0 -4 -4 -4 -3.999 0 c 0 0 -2 0 -2 2 z m 2 0 3 0 0 3 3 0 0 3 -6 0 z"
         style="fill:#66af96;fill-opacity:1"
         id="path23" />
      <path
         d="m 28 1034.36 -4 4 c -2 2 -2 2 0 2 l 16 0 c 2 0 2 0 0 -2 l -4 -4 0 -2 -8 0 z"
         style="fill:#66af96;opacity:1;fill-opacity:1;stroke:none"
         id="path25" />
      <path
         d="m 22 1012.36 c -2.216 0 -4 1.784 -4 4 l 0 14 c 0 2.216 1.784 4 4 4 l 20 0 c 2.216 0 4 -1.784 4 -4 l 0 -14 c 0 -2.216 -1.784 -4 -4 -4 z m 0 4 20 0 0 14 -20 0 z"
         style="fill:#66af96;opacity:1;fill-opacity:1;stroke:none"
         id="path27" />
    </g>
  </g>
</svg>
