<?xml version="1.0" encoding="UTF-8" standalone="no"?>
<!-- Created with Inkscape (http://www.inkscape.org/) -->

<svg
   xmlns:osb="http://www.openswatchbook.org/uri/2009/osb"
   xmlns:dc="http://purl.org/dc/elements/1.1/"
   xmlns:cc="http://creativecommons.org/ns#"
   xmlns:rdf="http://www.w3.org/1999/02/22-rdf-syntax-ns#"
   xmlns:svg="http://www.w3.org/2000/svg"
   xmlns="http://www.w3.org/2000/svg"
   xmlns:sodipodi="http://sodipodi.sourceforge.net/DTD/sodipodi-0.dtd"
   xmlns:inkscape="http://www.inkscape.org/namespaces/inkscape"
   width="200"
   height="150"
   viewBox="0 0 52.916667 39.6875"
   version="1.1"
   id="svg8"
   inkscape:version="0.92.2 2405546, 2018-03-11"
   sodipodi:docname="thumbnail.svg"
   inkscape:export-filename="/home/vince/桌面/thumbnail.png"
   inkscape:export-xdpi="96"
   inkscape:export-ydpi="96">
  <defs
     id="defs2">
    <linearGradient
       id="selected_bg_color"
       osb:paint="solid">
      <stop
         style="stop-color:#2e90b3;stop-opacity:1;"
         offset="0"
         id="stop5956" />
    </linearGradient>
    <linearGradient
       id="selected_bg_color-3"
       osb:paint="solid">
      <stop
         style="stop-color:#5294e2;stop-opacity:1;"
         offset="0"
         id="stop5956-6" />
    </linearGradient>
  </defs>
  <sodipodi:namedview
     id="base"
     pagecolor="#ffffff"
     bordercolor="#666666"
     borderopacity="1.0"
     inkscape:pageopacity="0.0"
     inkscape:pageshadow="2"
     inkscape:zoom="2"
     inkscape:cx="19.963755"
     inkscape:cy="37.44268"
     inkscape:document-units="mm"
     inkscape:current-layer="layer1"
     showgrid="false"
     units="px"
     inkscape:window-width="1920"
     inkscape:window-height="1025"
     inkscape:window-x="0"
     inkscape:window-y="27"
     inkscape:window-maximized="1"
     inkscape:snap-global="true"
     showguides="true"
     inkscape:guide-bbox="true">
    <inkscape:grid
       type="xygrid"
       id="grid1003" />
  </sodipodi:namedview>
  <metadata
     id="metadata5">
    <rdf:RDF>
      <cc:Work
         rdf:about="">
        <dc:format>image/svg+xml</dc:format>
        <dc:type
           rdf:resource="http://purl.org/dc/dcmitype/StillImage" />
        <dc:title />
      </cc:Work>
    </rdf:RDF>
  </metadata>
  <g
     inkscape:label="Layer 1"
     inkscape:groupmode="layer"
     id="layer1"
     transform="translate(0,-257.31248)">
    <g
       id="thumbnail"
       inkscape:label="#g954">
      <rect
         ry="0"
         rx="0"
         y="263.8302"
         x="11.296125"
         height="9.0767908"
         width="31.566374"
         id="rect1231"
         style="opacity:1;fill:#ffffff;fill-opacity:1;stroke:none;stroke-width:0.18362547;stroke-miterlimit:4;stroke-dasharray:none;stroke-opacity:1" />
      <rect
         ry="0.52761984"
         rx="0"
         y="265.3284"
         x="12.909537"
         height="6.0803819"
         width="16.18317"
         id="rect1295"
         style="opacity:0.15;fill:#fafafa;fill-opacity:1;stroke:#808080;stroke-width:0.26458332;stroke-miterlimit:4;stroke-dasharray:none;stroke-opacity:1" />
      <g
         transform="translate(-58.953119,4.7529433)"
         id="g1309"
         style="font-style:normal;font-variant:normal;font-weight:normal;font-stretch:normal;font-size:3.40856862px;line-height:1.25;font-family:Purisa;-inkscape-font-specification:Purisa;letter-spacing:0px;word-spacing:0px;fill:#b3b3b3;fill-opacity:1;stroke:none;stroke-width:0.08521421"
         aria-label="Button">
        <path
           inkscape:connector-curvature="0"
           id="path1297"
           style="font-style:normal;font-variant:normal;font-weight:normal;font-stretch:normal;font-family:Samanata;-inkscape-font-specification:Samanata;fill:#b3b3b3;stroke-width:0.08521421"
           d="m 74.699088,263.60556 v 0.91039 h 0.539246 q 0.271287,0 0.401106,-0.11151 0.131483,-0.11317 0.131483,-0.34451 0,-0.23301 -0.131483,-0.34286 -0.129819,-0.11151 -0.401106,-0.11151 z m 0,-1.0219 v 0.74895 h 0.497637 q 0.246323,0 0.366155,-0.0915 0.121497,-0.0932 0.121497,-0.28294 0,-0.18807 -0.121497,-0.28127 -0.119832,-0.0932 -0.366155,-0.0932 z m -0.336197,-0.27628 h 0.858799 q 0.384463,0 0.592505,0.15977 0.208043,0.15978 0.208043,0.45437 0,0.22801 -0.106518,0.36282 -0.106518,0.13481 -0.312896,0.1681 0.247987,0.0533 0.384463,0.22302 0.13814,0.1681 0.13814,0.42108 0,0.33287 -0.22635,0.51428 -0.22635,0.18142 -0.6441,0.18142 h -0.892086 z" />
        <path
           inkscape:connector-curvature="0"
           id="path1299"
           style="font-style:normal;font-variant:normal;font-weight:normal;font-stretch:normal;font-family:Samanata;-inkscape-font-specification:Samanata;fill:#b3b3b3;stroke-width:0.08521421"
           d="m 76.707946,264.0566 v -1.12843 h 0.306239 v 1.11678 q 0,0.26463 0.103189,0.39777 0.103189,0.13149 0.309567,0.13149 0.247987,0 0.39112,-0.15812 0.144798,-0.15811 0.144798,-0.43106 v -1.05686 h 0.306238 v 1.86407 h -0.306238 v -0.28627 q -0.111511,0.16976 -0.259637,0.25298 -0.146462,0.0815 -0.34119,0.0815 -0.321218,0 -0.487652,-0.19972 -0.166434,-0.19972 -0.166434,-0.58418 z" />
        <path
           inkscape:connector-curvature="0"
           id="path1301"
           style="font-style:normal;font-variant:normal;font-weight:normal;font-stretch:normal;font-family:Samanata;-inkscape-font-specification:Samanata;fill:#b3b3b3;stroke-width:0.08521421"
           d="m 79.0064,262.39891 v 0.52926 h 0.630785 v 0.238 H 79.0064 v 1.01192 q 0,0.22802 0.06158,0.29293 0.06324,0.0649 0.254644,0.0649 h 0.314561 v 0.25631 h -0.314561 q -0.354504,0 -0.489316,-0.13149 -0.134811,-0.13315 -0.134811,-0.48266 v -1.01192 h -0.224686 v -0.238 h 0.224686 v -0.52926 z" />
        <path
           inkscape:connector-curvature="0"
           id="path1303"
           style="font-style:normal;font-variant:normal;font-weight:normal;font-stretch:normal;font-family:Samanata;-inkscape-font-specification:Samanata;fill:#b3b3b3;stroke-width:0.08521421"
           d="m 80.690712,262.39891 v 0.52926 h 0.630785 v 0.238 h -0.630785 v 1.01192 q 0,0.22802 0.06158,0.29293 0.06325,0.0649 0.254644,0.0649 h 0.31456 v 0.25631 h -0.31456 q -0.354505,0 -0.489316,-0.13149 -0.134812,-0.13315 -0.134812,-0.48266 v -1.01192 h -0.224686 v -0.238 h 0.224686 v -0.52926 z" />
        <path
           inkscape:connector-curvature="0"
           id="path1305"
           style="font-style:normal;font-variant:normal;font-weight:normal;font-stretch:normal;font-family:Samanata;-inkscape-font-specification:Samanata;fill:#b3b3b3;stroke-width:0.08521421"
           d="m 82.794438,263.14287 q -0.246322,0 -0.389455,0.19307 -0.143134,0.1914 -0.143134,0.52593 0,0.33453 0.141469,0.52759 0.143134,0.1914 0.39112,0.1914 0.244658,0 0.387791,-0.19306 0.143134,-0.19306 0.143134,-0.52593 0,-0.3312 -0.143134,-0.52427 -0.143133,-0.19473 -0.387791,-0.19473 z m 0,-0.25963 q 0.399442,0 0.627456,0.25963 0.228015,0.25964 0.228015,0.719 0,0.45769 -0.228015,0.71899 -0.228014,0.25964 -0.627456,0.25964 -0.401106,0 -0.62912,-0.25964 -0.226351,-0.2613 -0.226351,-0.71899 0,-0.45936 0.226351,-0.719 0.228014,-0.25963 0.62912,-0.25963 z" />
        <path
           inkscape:connector-curvature="0"
           id="path1307"
           style="font-style:normal;font-variant:normal;font-weight:normal;font-stretch:normal;font-family:Samanata;-inkscape-font-specification:Samanata;fill:#b3b3b3;stroke-width:0.08521421"
           d="m 85.545593,263.66714 v 1.1251 h -0.306239 v -1.11511 q 0,-0.26463 -0.103189,-0.39612 -0.103189,-0.13148 -0.309567,-0.13148 -0.247987,0 -0.39112,0.15811 -0.143133,0.15812 -0.143133,0.43107 v 1.05353 h -0.307903 v -1.86407 h 0.307903 v 0.2896 q 0.109846,-0.1681 0.257972,-0.25132 0.149791,-0.0832 0.344519,-0.0832 0.321217,0 0.485987,0.19972 0.16477,0.19805 0.16477,0.58418 z" />
      </g>
      <g
         inkscape:label="#g2281"
         transform="matrix(0.26458333,0,0,0.26458333,73.576531,312.11769)"
         id="checkbox-checked"
         style="display:inline">
        <rect
           ry="6.7803931e-06"
           y="-173.63782"
           x="-161"
           height="17"
           width="17"
           id="rect2263"
           style="opacity:0;fill:#000000;fill-opacity:1;stroke:none;stroke-width:0.56666666;stroke-linecap:round;stroke-linejoin:miter;stroke-miterlimit:4;stroke-dasharray:none;stroke-opacity:1;paint-order:stroke fill markers" />
        <path
           sodipodi:nodetypes="sssssssss"
           style="color:#000000;display:inline;overflow:visible;visibility:visible;fill:#6ab878;fill-opacity:1;stroke:#000000;stroke-width:0;stroke-linecap:butt;stroke-linejoin:round;stroke-miterlimit:4;stroke-dasharray:none;stroke-dashoffset:0;stroke-opacity:1;marker:none;enable-background:accumulate"
           d="m -158,-172.63782 c -1.10801,0 -2,0.89199 -2,2 v 11 c 0,1.10801 0.89199,2 2,2 h 11 c 1.10801,0 2,-0.89199 2,-2 v -11 c 0,-1.10801 -0.89199,-2 -2,-2 z"
           id="rect2214"
           inkscape:connector-curvature="0" />
        <g
           id="g2160"
           transform="translate(-31.560648,45.68198)">
          <path
             style="fill:#ffffff;fill-opacity:1;stroke:none"
             d="m -107.61133,91.318359 -4.94922,4.949219 -2.82812,-2.828125 -0.70703,0.707031 2.82812,2.828125 0.70703,0.707032 0.70703,-0.707032 4.94922,-4.949218 z"
             transform="translate(-9.4393514,-305.3198)"
             id="rect1958"
             inkscape:connector-curvature="0" />
        </g>
      </g>
      <g
         inkscape:label="#g2295"
         transform="matrix(0.26458333,0,0,0.26458333,60.734364,312.11769)"
         id="radio-checked"
         style="display:inline">
        <path
           sodipodi:nodetypes="sssss"
           style="opacity:1;fill:#6ab878;fill-opacity:1;stroke:none;stroke-width:0.88235295;stroke-linecap:round;stroke-linejoin:miter;stroke-miterlimit:4;stroke-dasharray:none;stroke-opacity:1;paint-order:stroke fill markers"
           d="m -82.5,-172.63782 c -4.142136,0 -7.5,3.35786 -7.5,7.5 0,4.14214 3.357864,7.5 7.5,7.5 4.142136,0 7.5,-3.35786 7.5,-7.5 0,-4.14214 -3.357864,-7.5 -7.5,-7.5 z"
           id="path2234"
           inkscape:connector-curvature="0" />
        <rect
           style="opacity:0;fill:#000000;fill-opacity:1;stroke:none;stroke-width:0.56666666;stroke-linecap:round;stroke-linejoin:miter;stroke-miterlimit:4;stroke-dasharray:none;stroke-opacity:1;paint-order:stroke fill markers"
           id="rect2269"
           width="17"
           height="17"
           x="-91"
           y="-173.63782"
           ry="6.7803931e-06" />
        <rect
           rx="2.498594"
           y="-167.63782"
           x="-85"
           height="5"
           width="5"
           id="rect2030"
           style="color:#000000;display:inline;overflow:visible;visibility:visible;fill:#ffffff;fill-opacity:1;stroke:none;stroke-width:2.61048746;marker:none;enable-background:accumulate"
           ry="2.5" />
      </g>
    </g>
    <g
       id="thumbnail-dark"
       inkscape:label="#g974">
      <rect
         style="opacity:1;fill:#323232;fill-opacity:1;stroke:none;stroke-width:0.18362547;stroke-miterlimit:4;stroke-dasharray:none;stroke-opacity:1"
         id="rect1190"
         width="31.566374"
         height="9.0767908"
         x="11.296125"
         y="279.7052"
         rx="0"
         ry="0" />
      <rect
         style="opacity:1;fill:#3f3f3f;fill-opacity:1;stroke:#5c5c5c;stroke-width:0.26458332;stroke-miterlimit:4;stroke-dasharray:none;stroke-opacity:1"
         id="rect1192"
         width="16.18317"
         height="6.0803819"
         x="12.909537"
         y="281.2034"
         rx="0"
         ry="0.52761984" />
      <g
         aria-label="Button"
         style="font-style:normal;font-variant:normal;font-weight:normal;font-stretch:normal;font-size:3.40856862px;line-height:1.25;font-family:Purisa;-inkscape-font-specification:Purisa;letter-spacing:0px;word-spacing:0px;fill:#b3b3b3;fill-opacity:1;stroke:none;stroke-width:0.08521421"
         id="g1206"
         transform="translate(-58.953119,20.669656)">
        <path
           d="m 74.699088,263.60556 v 0.91039 h 0.539246 q 0.271287,0 0.401106,-0.11151 0.131483,-0.11317 0.131483,-0.34451 0,-0.23301 -0.131483,-0.34286 -0.129819,-0.11151 -0.401106,-0.11151 z m 0,-1.0219 v 0.74895 h 0.497637 q 0.246323,0 0.366155,-0.0915 0.121497,-0.0932 0.121497,-0.28294 0,-0.18807 -0.121497,-0.28127 -0.119832,-0.0932 -0.366155,-0.0932 z m -0.336197,-0.27628 h 0.858799 q 0.384463,0 0.592505,0.15977 0.208043,0.15978 0.208043,0.45437 0,0.22801 -0.106518,0.36282 -0.106518,0.13481 -0.312896,0.1681 0.247987,0.0533 0.384463,0.22302 0.13814,0.1681 0.13814,0.42108 0,0.33287 -0.22635,0.51428 -0.22635,0.18142 -0.6441,0.18142 h -0.892086 z"
           style="font-style:normal;font-variant:normal;font-weight:normal;font-stretch:normal;font-family:Samanata;-inkscape-font-specification:Samanata;fill:#b3b3b3;stroke-width:0.08521421"
           id="path1194"
           inkscape:connector-curvature="0" />
        <path
           d="m 76.707946,264.0566 v -1.12843 h 0.306239 v 1.11678 q 0,0.26463 0.103189,0.39777 0.103189,0.13149 0.309567,0.13149 0.247987,0 0.39112,-0.15812 0.144798,-0.15811 0.144798,-0.43106 v -1.05686 h 0.306238 v 1.86407 h -0.306238 v -0.28627 q -0.111511,0.16976 -0.259637,0.25298 -0.146462,0.0815 -0.34119,0.0815 -0.321218,0 -0.487652,-0.19972 -0.166434,-0.19972 -0.166434,-0.58418 z"
           style="font-style:normal;font-variant:normal;font-weight:normal;font-stretch:normal;font-family:Samanata;-inkscape-font-specification:Samanata;fill:#b3b3b3;stroke-width:0.08521421"
           id="path1196"
           inkscape:connector-curvature="0" />
        <path
           d="m 79.0064,262.39891 v 0.52926 h 0.630785 v 0.238 H 79.0064 v 1.01192 q 0,0.22802 0.06158,0.29293 0.06324,0.0649 0.254644,0.0649 h 0.314561 v 0.25631 h -0.314561 q -0.354504,0 -0.489316,-0.13149 -0.134811,-0.13315 -0.134811,-0.48266 v -1.01192 h -0.224686 v -0.238 h 0.224686 v -0.52926 z"
           style="font-style:normal;font-variant:normal;font-weight:normal;font-stretch:normal;font-family:Samanata;-inkscape-font-specification:Samanata;fill:#b3b3b3;stroke-width:0.08521421"
           id="path1198"
           inkscape:connector-curvature="0" />
        <path
           d="m 80.690712,262.39891 v 0.52926 h 0.630785 v 0.238 h -0.630785 v 1.01192 q 0,0.22802 0.06158,0.29293 0.06325,0.0649 0.254644,0.0649 h 0.31456 v 0.25631 h -0.31456 q -0.354505,0 -0.489316,-0.13149 -0.134812,-0.13315 -0.134812,-0.48266 v -1.01192 h -0.224686 v -0.238 h 0.224686 v -0.52926 z"
           style="font-style:normal;font-variant:normal;font-weight:normal;font-stretch:normal;font-family:Samanata;-inkscape-font-specification:Samanata;fill:#b3b3b3;stroke-width:0.08521421"
           id="path1200"
           inkscape:connector-curvature="0" />
        <path
           d="m 82.794438,263.14287 q -0.246322,0 -0.389455,0.19307 -0.143134,0.1914 -0.143134,0.52593 0,0.33453 0.141469,0.52759 0.143134,0.1914 0.39112,0.1914 0.244658,0 0.387791,-0.19306 0.143134,-0.19306 0.143134,-0.52593 0,-0.3312 -0.143134,-0.52427 -0.143133,-0.19473 -0.387791,-0.19473 z m 0,-0.25963 q 0.399442,0 0.627456,0.25963 0.228015,0.25964 0.228015,0.719 0,0.45769 -0.228015,0.71899 -0.228014,0.25964 -0.627456,0.25964 -0.401106,0 -0.62912,-0.25964 -0.226351,-0.2613 -0.226351,-0.71899 0,-0.45936 0.226351,-0.719 0.228014,-0.25963 0.62912,-0.25963 z"
           style="font-style:normal;font-variant:normal;font-weight:normal;font-stretch:normal;font-family:Samanata;-inkscape-font-specification:Samanata;fill:#b3b3b3;stroke-width:0.08521421"
           id="path1202"
           inkscape:connector-curvature="0" />
        <path
           d="m 85.545593,263.66714 v 1.1251 h -0.306239 v -1.11511 q 0,-0.26463 -0.103189,-0.39612 -0.103189,-0.13148 -0.309567,-0.13148 -0.247987,0 -0.39112,0.15811 -0.143133,0.15812 -0.143133,0.43107 v 1.05353 h -0.307903 v -1.86407 h 0.307903 v 0.2896 q 0.109846,-0.1681 0.257972,-0.25132 0.149791,-0.0832 0.344519,-0.0832 0.321217,0 0.485987,0.19972 0.16477,0.19805 0.16477,0.58418 z"
           style="font-style:normal;font-variant:normal;font-weight:normal;font-stretch:normal;font-family:Samanata;-inkscape-font-specification:Samanata;fill:#b3b3b3;stroke-width:0.08521421"
           id="path1204"
           inkscape:connector-curvature="0" />
      </g>
      <g
         style="display:inline"
         id="g926"
         transform="matrix(0.26458333,0,0,0.26458333,73.576531,327.93631)"
         inkscape:label="#g2281">
        <rect
           style="opacity:0;fill:#000000;fill-opacity:1;stroke:none;stroke-width:0.56666666;stroke-linecap:round;stroke-linejoin:miter;stroke-miterlimit:4;stroke-dasharray:none;stroke-opacity:1;paint-order:stroke fill markers"
           id="rect918"
           width="17"
           height="17"
           x="-161"
           y="-173.63782"
           ry="6.7803931e-06" />
        <path
           inkscape:connector-curvature="0"
           id="path920"
           d="m -158,-172.63782 c -1.10801,0 -2,0.89199 -2,2 v 11 c 0,1.10801 0.89199,2 2,2 h 11 c 1.10801,0 2,-0.89199 2,-2 v -11 c 0,-1.10801 -0.89199,-2 -2,-2 z"
           style="color:#000000;display:inline;overflow:visible;visibility:visible;fill:#6ab878;fill-opacity:1;stroke:#000000;stroke-width:0;stroke-linecap:butt;stroke-linejoin:round;stroke-miterlimit:4;stroke-dasharray:none;stroke-dashoffset:0;stroke-opacity:1;marker:none;enable-background:accumulate"
           sodipodi:nodetypes="sssssssss" />
        <g
           transform="translate(-31.560648,45.68198)"
           id="g924">
          <path
             inkscape:connector-curvature="0"
             id="path922"
             transform="translate(-9.4393514,-305.3198)"
             d="m -107.61133,91.318359 -4.94922,4.949219 -2.82812,-2.828125 -0.70703,0.707031 2.82812,2.828125 0.70703,0.707032 0.70703,-0.707032 4.94922,-4.949218 z"
             style="fill:#ffffff;fill-opacity:1;stroke:none" />
        </g>
      </g>
      <g
         style="display:inline"
         id="g934"
         transform="matrix(0.26458333,0,0,0.26458333,60.734364,327.93631)"
         inkscape:label="#g2295">
        <path
           inkscape:connector-curvature="0"
           id="path928"
           d="m -82.5,-172.63782 c -4.142136,0 -7.5,3.35786 -7.5,7.5 0,4.14214 3.357864,7.5 7.5,7.5 4.142136,0 7.5,-3.35786 7.5,-7.5 0,-4.14214 -3.357864,-7.5 -7.5,-7.5 z"
           style="opacity:1;fill:#6ab878;fill-opacity:1;stroke:none;stroke-width:0.88235295;stroke-linecap:round;stroke-linejoin:miter;stroke-miterlimit:4;stroke-dasharray:none;stroke-opacity:1;paint-order:stroke fill markers"
           sodipodi:nodetypes="sssss" />
        <rect
           ry="6.7803931e-06"
           y="-173.63782"
           x="-91"
           height="17"
           width="17"
           id="rect930"
           style="opacity:0;fill:#000000;fill-opacity:1;stroke:none;stroke-width:0.56666666;stroke-linecap:round;stroke-linejoin:miter;stroke-miterlimit:4;stroke-dasharray:none;stroke-opacity:1;paint-order:stroke fill markers" />
        <rect
           ry="2.5"
           style="color:#000000;display:inline;overflow:visible;visibility:visible;fill:#ffffff;fill-opacity:1;stroke:none;stroke-width:2.61048746;marker:none;enable-background:accumulate"
           id="rect932"
           width="5"
           height="5"
           x="-85"
           y="-167.63782"
           rx="2.498594" />
      </g>
    </g>
  </g>
</svg>
